grf
version=1
nRows=62
nColumns=19
inDegrees=yes
endheader
time	ground_force_1_vx	ground_force_1_vy	ground_force_1_vz	ground_force_1_px	ground_force_1_py	ground_force_1_pz	ground_moment_1_mx	ground_moment_1_my	ground_moment_1_mz	ground_force_2_vx	ground_force_2_vy	ground_force_2_vz	ground_force_2_px	ground_force_2_py	ground_force_2_pz	ground_moment_2_mx	ground_moment_2_my	ground_moment_2_mz
0.532000	5.719657	487.589844	-16.855843	0.984513	0.000000	0.245675	-0.000000	1.587412	0.000000	0.000000	0.000000	0.000000	0.000000	0.000000	0.000000	0.000000	0.000000	0.000000
0.533000	6.461543	480.623901	-16.936152	0.985120	0.000000	0.247530	-0.000000	1.585961	0.000000	0.000000	0.000000	0.000000	0.000000	0.000000	0.000000	0.000000	0.000000	0.000000
0.534000	4.356191	482.697083	-18.281334	0.984309	0.000000	0.245731	-0.000000	1.536586	0.000000	0.000000	0.000000	0.000000	0.000000	0.000000	0.000000	0.000000	0.000000	0.000000
0.535000	4.075478	482.614166	-17.799479	0.984812	0.000000	0.245147	-0.000000	1.596295	0.000000	0.000000	0.000000	0.000000	0.000000	0.000000	0.000000	0.000000	0.000000	0.000000
0.536000	4.396293	487.589874	-17.317621	0.984794	0.000000	0.246447	-0.000000	1.536937	0.000000	0.000000	0.000000	0.000000	0.000000	0.000000	0.000000	0.000000	0.000000	0.000000
0.537000	3.975223	489.497223	-17.036539	0.982559	0.000000	0.246110	-0.000000	1.601265	0.000000	0.000000	0.000000	0.000000	0.000000	0.000000	0.000000	0.000000	0.000000	0.000000
0.538000	3.213285	487.258148	-17.418009	0.982763	0.000000	0.246101	-0.000000	1.576462	0.000000	0.000000	0.000000	0.000000	0.000000	0.000000	0.000000	0.000000	0.000000	0.000000
0.539000	2.150585	487.009369	-17.277466	0.982464	0.000000	0.246118	-0.000000	1.679131	0.000000	0.000000	0.000000	0.000000	0.000000	0.000000	0.000000	0.000000	0.000000	0.000000
0.540000	2.651858	492.399658	-16.755455	0.982788	0.000000	0.245764	-0.000000	1.627822	0.000000	0.000000	0.000000	0.000000	0.000000	0.000000	0.000000	0.000000	0.000000	0.000000
0.541000	1.649310	488.584991	-16.936153	0.982795	0.000000	0.245860	-0.000000	1.657705	0.000000	0.000000	0.000000	0.000000	0.000000	0.000000	0.000000	0.000000	0.000000	0.000000
0.542000	1.649310	490.243561	-16.333832	0.981703	0.000000	0.245559	-0.000000	1.658409	0.000000	0.000000	0.000000	0.000000	0.000000	0.000000	0.000000	0.000000	0.000000	0.000000
0.543000	0.606659	489.497223	-16.414141	0.980067	0.000000	0.246495	-0.000000	1.866907	0.000000	0.000000	0.000000	0.000000	0.000000	0.000000	0.000000	0.000000	0.000000	0.000000
0.544000	0.185589	495.550964	-16.253521	0.980488	0.000000	0.245601	-0.000000	1.819575	0.000000	0.000000	0.000000	0.000000	0.000000	0.000000	0.000000	0.000000	0.000000	0.000000
0.545000	0.726965	492.731415	-16.434217	0.980933	0.000000	0.245845	-0.000000	1.706998	0.000000	0.000000	0.000000	0.000000	0.000000	0.000000	0.000000	0.000000	0.000000	0.000000
0.546000	0.205640	489.745972	-15.791742	0.980157	0.000000	0.246308	-0.000000	1.794990	0.000000	0.000000	0.000000	0.000000	0.000000	0.000000	0.000000	0.000000	0.000000	0.000000
0.547000	-0.315685	493.892395	-16.092903	0.980509	0.000000	0.246414	-0.000000	1.753252	0.000000	0.000000	0.000000	0.000000	0.000000	0.000000	0.000000	0.000000	0.000000	0.000000
0.548000	-1.378386	500.692505	-15.530737	0.979051	0.000000	0.245439	-0.000000	1.805671	0.000000	0.000000	0.000000	0.000000	0.000000	0.000000	0.000000	0.000000	0.000000	0.000000
0.549000	-0.636501	494.141174	-16.253523	0.979935	0.000000	0.246235	-0.000000	1.701716	0.000000	0.000000	0.000000	0.000000	0.000000	0.000000	0.000000	0.000000	0.000000	0.000000
0.550000	-1.157826	495.302185	-15.831898	0.981105	0.000000	0.245965	-0.000000	1.654807	0.000000	0.000000	0.000000	0.000000	0.000000	0.000000	0.000000	0.000000	0.000000	0.000000
0.551000	-1.217979	498.370514	-15.189423	0.977837	0.000000	0.246282	-0.000000	1.805377	0.000000	0.000000	0.000000	0.000000	0.000000	0.000000	0.000000	0.000000	0.000000	0.000000
0.552000	-2.220528	500.277863	-15.329964	0.978673	0.000000	0.245953	-0.000000	1.778346	0.000000	0.000000	0.000000	0.000000	0.000000	0.000000	0.000000	0.000000	0.000000	0.000000
0.553000	-3.102770	499.199829	-14.888262	0.977929	0.000000	0.245675	-0.000000	1.871817	0.000000	0.000000	0.000000	0.000000	0.000000	0.000000	0.000000	0.000000	0.000000	0.000000
0.554000	-2.982465	501.521790	-15.350041	0.977910	0.000000	0.245976	-0.000000	1.843537	0.000000	0.000000	0.000000	0.000000	0.000000	0.000000	0.000000	0.000000	0.000000	0.000000
0.555000	-2.461139	506.165802	-14.948494	0.976785	0.000000	0.245788	-0.000000	1.758026	0.000000	0.000000	0.000000	0.000000	0.000000	0.000000	0.000000	0.000000	0.000000	0.000000
0.556000	-3.704299	505.170654	-14.747720	0.976624	0.000000	0.245346	-0.000000	1.853510	0.000000	0.000000	0.000000	0.000000	0.000000	0.000000	0.000000	0.000000	0.000000	0.000000
0.557000	-3.644147	510.643890	-15.671278	0.975938	0.000000	0.245320	-0.000000	1.785046	0.000000	0.000000	0.000000	0.000000	0.000000	0.000000	0.000000	0.000000	0.000000	0.000000
0.558000	-4.025115	509.482910	-15.089035	0.976206	0.000000	0.245633	-0.000000	1.864567	0.000000	0.000000	0.000000	0.000000	0.000000	0.000000	0.000000	0.000000	0.000000	0.000000
0.559000	-4.767000	514.707397	-14.285941	0.975397	0.000000	0.244606	-0.000000	1.870754	0.000000	0.000000	0.000000	0.000000	0.000000	0.000000	0.000000	0.000000	0.000000	0.000000
0.560000	-5.127919	516.448914	-14.245787	0.975142	0.000000	0.244439	-0.000000	1.863726	0.000000	0.000000	0.000000	0.000000	0.000000	0.000000	0.000000	0.000000	0.000000	0.000000
0.561000	-5.629193	516.614746	-14.285942	0.974687	0.000000	0.244922	-0.000000	1.872109	0.000000	0.000000	0.000000	0.000000	0.000000	0.000000	0.000000	0.000000	0.000000	0.000000
0.562000	-5.488836	519.185486	-14.024936	0.975001	0.000000	0.245241	-0.000000	1.927566	0.000000	0.000000	0.000000	0.000000	0.000000	0.000000	0.000000	0.000000	0.000000	0.000000
0.563000	-4.867256	517.195251	-14.426483	0.974769	0.000000	0.244609	-0.000000	1.783635	0.000000	0.000000	0.000000	0.000000	0.000000	0.000000	0.000000	0.000000	0.000000	0.000000
0.564000	-6.671843	519.683105	-12.860449	0.974886	0.000000	0.244575	-0.000000	1.846283	0.000000	0.000000	0.000000	0.000000	0.000000	0.000000	0.000000	0.000000	0.000000	0.000000
0.565000	-4.847205	513.048828	-15.249655	0.974793	0.000000	0.245903	-0.000000	1.759172	0.000000	0.000000	0.000000	0.000000	0.000000	0.000000	0.000000	0.000000	0.000000	0.000000
0.566000	-6.010161	519.434326	-15.089035	0.975652	0.000000	0.244108	-0.000000	1.601793	0.000000	0.000000	0.000000	0.000000	0.000000	0.000000	0.000000	0.000000	0.000000	0.000000
0.567000	-6.872354	525.156372	-13.563156	0.973203	0.000000	0.245716	-0.000000	2.073198	0.000000	0.000000	0.000000	0.000000	0.000000	0.000000	0.000000	0.000000	0.000000	0.000000
0.568000	-6.270823	529.136902	-14.727642	0.971891	0.000000	0.244027	-0.000000	1.725203	0.000000	0.000000	0.000000	0.000000	0.000000	0.000000	0.000000	0.000000	0.000000	0.000000
0.569000	-5.769549	526.814880	-15.370119	0.973512	0.000000	0.244013	-0.000000	1.668009	0.000000	0.000000	0.000000	0.000000	0.000000	0.000000	0.000000	0.000000	0.000000	0.000000
0.570000	-6.391129	527.810059	-14.165478	0.971495	0.000000	0.244112	-0.000000	1.903807	0.000000	0.000000	0.000000	0.000000	0.000000	0.000000	0.000000	0.000000	0.000000	0.000000
0.571000	-5.829702	532.454041	-15.872051	0.972728	0.000000	0.245296	-0.000000	1.409521	0.000000	0.000000	0.000000	0.000000	0.000000	0.000000	0.000000	0.000000	0.000000	0.000000
0.572000	-6.531487	532.371155	-14.948494	0.971961	0.000000	0.244432	-0.000000	1.727070	0.000000	0.000000	0.000000	0.000000	0.000000	0.000000	0.000000	0.000000	0.000000	0.000000
0.573000	-6.952557	536.268738	-15.109114	0.972050	0.000000	0.243928	-0.000000	1.696459	0.000000	0.000000	0.000000	0.000000	0.000000	0.000000	0.000000	0.000000	0.000000	0.000000
0.574000	-7.213220	539.419922	-14.607178	0.970746	0.000000	0.244010	-0.000000	1.868046	0.000000	0.000000	0.000000	0.000000	0.000000	0.000000	0.000000	0.000000	0.000000	0.000000
0.575000	-6.912455	541.659058	-14.747721	0.970204	0.000000	0.244789	-0.000000	1.787579	0.000000	0.000000	0.000000	0.000000	0.000000	0.000000	0.000000	0.000000	0.000000	0.000000
0.576000	-7.654342	544.478577	-15.109112	0.969350	0.000000	0.244380	-0.000000	1.870267	0.000000	0.000000	0.000000	0.000000	0.000000	0.000000	0.000000	0.000000	0.000000	0.000000
0.577000	-7.694442	548.707947	-14.928417	0.970353	0.000000	0.244289	-0.000000	1.713919	0.000000	0.000000	0.000000	0.000000	0.000000	0.000000	0.000000	0.000000	0.000000	0.000000
0.578000	-7.814749	552.025024	-14.948494	0.968899	0.000000	0.243517	-0.000000	1.742400	0.000000	0.000000	0.000000	0.000000	0.000000	0.000000	0.000000	0.000000	0.000000	0.000000
0.579000	-7.854851	551.278687	-15.329964	0.968538	0.000000	0.243778	-0.000000	1.692469	0.000000	0.000000	0.000000	0.000000	0.000000	0.000000	0.000000	0.000000	0.000000	0.000000
0.580000	-8.295973	554.429993	-15.028803	0.968350	0.000000	0.243806	-0.000000	1.829423	0.000000	0.000000	0.000000	0.000000	0.000000	0.000000	0.000000	0.000000	0.000000	0.000000
0.581000	-8.215769	558.825195	-15.952362	0.968798	0.000000	0.243401	-0.000000	1.725025	0.000000	0.000000	0.000000	0.000000	0.000000	0.000000	0.000000	0.000000	0.000000	0.000000
0.582000	-8.576686	563.386230	-16.133059	0.968123	0.000000	0.243371	-0.000000	1.722063	0.000000	0.000000	0.000000	0.000000	0.000000	0.000000	0.000000	0.000000	0.000000	0.000000
0.583000	-9.398775	560.898376	-15.350040	0.968238	0.000000	0.243380	-0.000000	1.835055	0.000000	0.000000	0.000000	0.000000	0.000000	0.000000	0.000000	0.000000	0.000000	0.000000
0.584000	-9.017807	565.044800	-16.233444	0.967065	0.000000	0.243270	-0.000000	1.664652	0.000000	0.000000	0.000000	0.000000	0.000000	0.000000	0.000000	0.000000	0.000000	0.000000
0.585000	-8.977705	567.283875	-16.273600	0.966949	0.000000	0.243570	-0.000000	1.770784	0.000000	0.000000	0.000000	0.000000	0.000000	0.000000	0.000000	0.000000	0.000000	0.000000
0.586000	-9.298520	569.274109	-15.912207	0.967738	0.000000	0.243272	-0.000000	1.755087	0.000000	0.000000	0.000000	0.000000	0.000000	0.000000	0.000000	0.000000	0.000000	0.000000
0.587000	-10.000305	572.176636	-15.711433	0.966844	0.000000	0.243156	-0.000000	1.828816	0.000000	0.000000	0.000000	0.000000	0.000000	0.000000	0.000000	0.000000	0.000000	0.000000
0.588000	-9.539133	575.659607	-15.831898	0.966362	0.000000	0.243300	-0.000000	1.800989	0.000000	0.000000	0.000000	0.000000	0.000000	0.000000	0.000000	0.000000	0.000000	0.000000
0.589000	-9.819846	577.898621	-15.872053	0.966340	0.000000	0.243009	-0.000000	1.766244	0.000000	0.000000	0.000000	0.000000	0.000000	0.000000	0.000000	0.000000	0.000000	0.000000
0.590000	-10.000305	576.157227	-16.112980	0.965921	0.000000	0.243102	-0.000000	1.816228	0.000000	0.000000	0.000000	0.000000	0.000000	0.000000	0.000000	0.000000	0.000000	0.000000
0.591000	-9.819846	579.640198	-16.353909	0.966284	0.000000	0.242857	-0.000000	1.638935	0.000000	0.000000	0.000000	0.000000	0.000000	0.000000	0.000000	0.000000	0.000000	0.000000
0.592000	-9.378724	579.806030	-16.052748	0.966243	0.000000	0.243144	-0.000000	1.767715	0.000000	0.000000	0.000000	0.000000	0.000000	0.000000	0.000000	0.000000	0.000000	0.000000
0.593000	-9.980253	584.201233	-16.333832	0.964135	0.000000	0.242882	-0.000000	1.747465	0.000000	0.000000	0.000000	0.000000	0.000000	0.000000	0.000000	0.000000	0.000000	0.000000
